<?xml version="1.0" encoding="utf-8"?>
<!-- Generator: Adobe Illustrator 28.0.0, SVG Export Plug-In . SVG Version: 6.00 Build 0)  -->
<svg
    version="1.1"
    id="Layer_1"
    xmlns="http://www.w3.org/2000/svg"
    xmlns:xlink="http://www.w3.org/1999/xlink"
    x="0px"
    y="0px"
    width="220px"
    height="60px"
    viewBox="0 0 220 60"
    enable-background="new 0 0 220 60"
    xml:space="preserve"
>
    <path
        fill="#FFFFFF"
        d="M44.17,42.72c0,0.17-0.05,0.32-0.14,0.45s-0.26,0.24-0.5,0.33c-0.24,0.08-0.56,0.15-0.96,0.2
	s-0.91,0.08-1.53,0.08c-0.6,0-1.1-0.03-1.5-0.08s-0.72-0.12-0.95-0.2c-0.23-0.08-0.4-0.19-0.5-0.33s-0.15-0.28-0.15-0.45V16.37
	h-0.05L28.51,42.7c-0.07,0.22-0.17,0.4-0.33,0.54s-0.35,0.25-0.61,0.34c-0.26,0.08-0.59,0.14-0.99,0.16
	c-0.4,0.03-0.88,0.04-1.45,0.04c-0.57,0-1.05-0.02-1.45-0.06c-0.4-0.04-0.73-0.11-0.99-0.2s-0.46-0.2-0.61-0.34
	c-0.15-0.13-0.25-0.29-0.3-0.48l-9.06-26.33h-0.05v26.35c0,0.17-0.05,0.32-0.14,0.45c-0.09,0.13-0.26,0.24-0.51,0.33
	c-0.25,0.08-0.57,0.15-0.96,0.2c-0.39,0.05-0.9,0.08-1.51,0.08c-0.6,0-1.1-0.03-1.5-0.08s-0.72-0.12-0.96-0.2
	c-0.24-0.08-0.41-0.19-0.5-0.33c-0.09-0.13-0.14-0.28-0.14-0.45V13.87c0-0.85,0.23-1.5,0.68-1.95c0.45-0.45,1.05-0.68,1.8-0.68h4.3
	c0.77,0,1.43,0.06,1.98,0.19c0.55,0.12,1.03,0.33,1.43,0.63c0.4,0.29,0.73,0.68,1,1.15c0.27,0.48,0.5,1.06,0.7,1.76l7.01,19.3h0.1
	l7.26-19.25c0.22-0.7,0.45-1.29,0.71-1.78c0.26-0.48,0.56-0.88,0.9-1.18c0.34-0.3,0.75-0.51,1.21-0.64
	c0.47-0.12,1.01-0.19,1.63-0.19h4.43c0.45,0,0.84,0.06,1.16,0.18c0.33,0.12,0.59,0.29,0.8,0.51s0.37,0.5,0.48,0.83
	c0.11,0.33,0.16,0.7,0.16,1.11V42.72z"
    />
    <path
        fill="#FFFFFF"
        d="M71.48,30.96c0,0.77-0.17,1.33-0.51,1.7c-0.34,0.37-0.81,0.55-1.41,0.55H55.96c0,0.95,0.11,1.81,0.34,2.59
	c0.23,0.78,0.58,1.44,1.08,1.98s1.13,0.96,1.9,1.24c0.78,0.28,1.71,0.43,2.79,0.43c1.1,0,2.07-0.08,2.9-0.24s1.56-0.33,2.17-0.53
	c0.61-0.19,1.11-0.37,1.51-0.53c0.4-0.16,0.73-0.24,0.98-0.24c0.15,0,0.28,0.03,0.38,0.09s0.18,0.16,0.25,0.31
	c0.07,0.15,0.11,0.36,0.14,0.64c0.02,0.28,0.04,0.62,0.04,1.04c0,0.37-0.01,0.68-0.02,0.94c-0.02,0.26-0.04,0.48-0.08,0.66
	c-0.03,0.18-0.08,0.34-0.15,0.46s-0.15,0.25-0.26,0.36c-0.11,0.12-0.4,0.28-0.89,0.48c-0.48,0.2-1.1,0.4-1.85,0.59
	c-0.75,0.19-1.61,0.36-2.58,0.5c-0.97,0.14-2,0.21-3.1,0.21c-1.99,0-3.73-0.25-5.22-0.75c-1.49-0.5-2.74-1.26-3.74-2.28
	c-1-1.02-1.75-2.3-2.24-3.85c-0.49-1.55-0.74-3.37-0.74-5.46c0-1.99,0.26-3.77,0.78-5.37c0.52-1.59,1.27-2.94,2.25-4.05
	c0.98-1.11,2.18-1.96,3.59-2.54c1.41-0.58,3-0.88,4.77-0.88c1.87,0,3.47,0.28,4.79,0.83c1.33,0.55,2.42,1.31,3.27,2.29
	c0.85,0.98,1.48,2.13,1.88,3.47c0.4,1.33,0.6,2.79,0.6,4.35V30.96z M65.37,29.16c0.05-1.77-0.3-3.16-1.06-4.17
	c-0.76-1.01-1.93-1.51-3.52-1.51c-0.8,0-1.5,0.15-2.09,0.45c-0.59,0.3-1.08,0.71-1.48,1.21c-0.39,0.51-0.69,1.11-0.9,1.8
	c-0.21,0.69-0.33,1.43-0.36,2.21H65.37z"
    />
    <path
        fill="#FFFFFF"
        d="M89.52,40.57c0,0.73-0.05,1.3-0.14,1.69c-0.09,0.39-0.21,0.67-0.36,0.83c-0.15,0.16-0.37,0.3-0.66,0.43
	s-0.63,0.23-1.03,0.33c-0.39,0.09-0.82,0.16-1.28,0.21c-0.46,0.05-0.92,0.08-1.39,0.08c-1.25,0-2.34-0.16-3.25-0.48
	c-0.92-0.32-1.68-0.8-2.28-1.46c-0.6-0.66-1.04-1.49-1.33-2.49c-0.28-1-0.43-2.19-0.43-3.55V24.7h-2.68c-0.32,0-0.56-0.2-0.73-0.59
	c-0.17-0.39-0.25-1.05-0.25-1.96c0-0.48,0.02-0.89,0.06-1.23c0.04-0.33,0.1-0.6,0.19-0.79s0.19-0.33,0.31-0.41s0.27-0.12,0.44-0.12
	h2.65v-4.98c0-0.17,0.05-0.32,0.14-0.45c0.09-0.13,0.26-0.25,0.5-0.34c0.24-0.09,0.57-0.16,0.98-0.2c0.41-0.04,0.91-0.06,1.51-0.06
	c0.62,0,1.13,0.02,1.54,0.06c0.41,0.04,0.73,0.11,0.96,0.2c0.23,0.09,0.4,0.2,0.5,0.34c0.1,0.13,0.15,0.28,0.15,0.45v4.98h4.85
	c0.17,0,0.31,0.04,0.44,0.12s0.23,0.22,0.31,0.41c0.08,0.19,0.15,0.45,0.19,0.79c0.04,0.33,0.06,0.74,0.06,1.23
	c0,0.92-0.08,1.57-0.25,1.96c-0.17,0.39-0.41,0.59-0.73,0.59h-4.88v10.49c0,1.22,0.19,2.13,0.58,2.74s1.07,0.91,2.05,0.91
	c0.33,0,0.63-0.03,0.9-0.09c0.27-0.06,0.5-0.12,0.71-0.2c0.21-0.07,0.38-0.14,0.53-0.2c0.14-0.06,0.27-0.09,0.39-0.09
	c0.1,0,0.2,0.03,0.29,0.09c0.09,0.06,0.16,0.18,0.21,0.35c0.05,0.18,0.1,0.41,0.14,0.71C89.5,39.72,89.52,40.1,89.52,40.57z"
    />
    <path
        fill="#FFFFFF"
        d="M114.07,30.96c0,0.77-0.17,1.33-0.51,1.7s-0.81,0.55-1.41,0.55H98.56c0,0.95,0.11,1.81,0.34,2.59
	c0.23,0.78,0.58,1.44,1.08,1.98s1.13,0.96,1.9,1.24c0.78,0.28,1.71,0.43,2.79,0.43c1.1,0,2.07-0.08,2.9-0.24s1.56-0.33,2.17-0.53
	c0.61-0.19,1.11-0.37,1.51-0.53c0.4-0.16,0.73-0.24,0.98-0.24c0.15,0,0.28,0.03,0.38,0.09c0.1,0.06,0.18,0.16,0.25,0.31
	c0.07,0.15,0.11,0.36,0.14,0.64c0.02,0.28,0.04,0.62,0.04,1.04c0,0.37-0.01,0.68-0.03,0.94s-0.04,0.48-0.08,0.66
	c-0.03,0.18-0.08,0.34-0.15,0.46c-0.07,0.12-0.15,0.25-0.26,0.36c-0.11,0.12-0.41,0.28-0.89,0.48c-0.48,0.2-1.1,0.4-1.85,0.59
	c-0.75,0.19-1.61,0.36-2.58,0.5c-0.97,0.14-2,0.21-3.1,0.21c-1.99,0-3.73-0.25-5.22-0.75c-1.49-0.5-2.74-1.26-3.74-2.28
	c-1-1.02-1.75-2.3-2.24-3.85s-0.74-3.37-0.74-5.46c0-1.99,0.26-3.77,0.78-5.37c0.52-1.59,1.27-2.94,2.25-4.05
	c0.98-1.11,2.18-1.96,3.59-2.54s3-0.88,4.77-0.88c1.87,0,3.47,0.28,4.79,0.83c1.33,0.55,2.42,1.31,3.27,2.29
	c0.85,0.98,1.48,2.13,1.88,3.47c0.4,1.33,0.6,2.79,0.6,4.35V30.96z M107.97,29.16c0.05-1.77-0.3-3.16-1.06-4.17
	c-0.76-1.01-1.93-1.51-3.52-1.51c-0.8,0-1.5,0.15-2.09,0.45c-0.59,0.3-1.08,0.71-1.48,1.21c-0.39,0.51-0.69,1.11-0.9,1.8
	c-0.21,0.69-0.33,1.43-0.36,2.21H107.97z"
    />
    <path
        fill="#FFFFFF"
        d="M141.83,31.39c0,1.9-0.25,3.64-0.75,5.21c-0.5,1.57-1.26,2.92-2.28,4.05c-1.02,1.13-2.29,2.01-3.83,2.63
	s-3.33,0.93-5.38,0.93c-1.99,0-3.71-0.27-5.18-0.83c-1.47-0.55-2.69-1.35-3.65-2.4c-0.97-1.05-1.69-2.34-2.15-3.88
	c-0.47-1.54-0.7-3.29-0.7-5.26c0-1.9,0.25-3.64,0.76-5.22c0.51-1.58,1.27-2.93,2.29-4.05c1.02-1.13,2.29-2,3.82-2.62
	c1.53-0.62,3.32-0.93,5.37-0.93c2,0,3.74,0.27,5.21,0.81c1.47,0.54,2.68,1.34,3.64,2.39c0.96,1.05,1.67,2.34,2.14,3.88
	C141.6,27.64,141.83,29.4,141.83,31.39z M135.35,31.64c0-1.1-0.09-2.11-0.26-3.04c-0.18-0.93-0.47-1.73-0.89-2.42
	s-0.97-1.22-1.66-1.6c-0.69-0.38-1.56-0.58-2.62-0.58c-0.94,0-1.75,0.17-2.45,0.51c-0.7,0.34-1.28,0.84-1.73,1.5
	c-0.45,0.66-0.79,1.45-1.01,2.38c-0.23,0.93-0.34,1.98-0.34,3.17c0,1.1,0.09,2.11,0.28,3.04c0.18,0.93,0.48,1.73,0.89,2.42
	c0.41,0.68,0.96,1.21,1.67,1.59c0.7,0.38,1.57,0.56,2.6,0.56c0.95,0,1.78-0.17,2.48-0.51c0.7-0.34,1.28-0.84,1.73-1.49
	c0.45-0.65,0.78-1.44,1-2.37C135.24,33.88,135.35,32.82,135.35,31.64z"
    />
    <path
        fill="#FFFFFF"
        d="M173.16,16.27c0,0.48-0.02,0.9-0.06,1.25c-0.04,0.35-0.1,0.63-0.17,0.84s-0.17,0.35-0.28,0.44
	c-0.11,0.08-0.24,0.12-0.39,0.12c-0.22,0-0.57-0.15-1.05-0.45c-0.48-0.3-1.13-0.63-1.93-0.98c-0.8-0.35-1.76-0.68-2.87-0.98
	s-2.4-0.45-3.87-0.45c-1.57,0-2.99,0.27-4.25,0.81s-2.35,1.31-3.25,2.3c-0.9,0.99-1.59,2.19-2.08,3.58
	c-0.48,1.39-0.73,2.93-0.73,4.62c0,1.85,0.25,3.48,0.74,4.89c0.49,1.41,1.18,2.59,2.07,3.54c0.88,0.95,1.95,1.67,3.19,2.15
	c1.24,0.48,2.62,0.73,4.12,0.73c0.73,0,1.46-0.08,2.18-0.25c0.72-0.17,1.38-0.42,2-0.75v-7.51h-6.13c-0.3,0-0.53-0.19-0.7-0.56
	c-0.17-0.38-0.25-1.01-0.25-1.91c0-0.47,0.02-0.86,0.06-1.18s0.1-0.57,0.19-0.76c0.08-0.19,0.18-0.33,0.3-0.43
	c0.12-0.09,0.25-0.14,0.4-0.14h10.94c0.27,0,0.5,0.05,0.71,0.14c0.21,0.09,0.39,0.23,0.55,0.41c0.16,0.18,0.28,0.4,0.36,0.66
	c0.08,0.26,0.12,0.55,0.12,0.89V40.2c0,0.5-0.09,0.94-0.26,1.31c-0.17,0.38-0.53,0.67-1.08,0.89s-1.21,0.44-2.01,0.68
	c-0.8,0.23-1.63,0.43-2.49,0.6c-0.86,0.17-1.73,0.29-2.6,0.38c-0.88,0.08-1.76,0.12-2.64,0.12c-2.59,0-4.9-0.37-6.95-1.11
	s-3.77-1.82-5.19-3.23c-1.42-1.41-2.5-3.13-3.25-5.16s-1.13-4.33-1.13-6.9c0-2.65,0.4-5.03,1.2-7.15c0.8-2.11,1.94-3.9,3.4-5.38
	c1.47-1.48,3.24-2.61,5.32-3.39s4.39-1.18,6.95-1.18c1.4,0,2.68,0.1,3.83,0.29c1.15,0.19,2.16,0.43,3.02,0.7
	c0.86,0.28,1.57,0.57,2.14,0.89s0.96,0.59,1.19,0.83c0.22,0.23,0.39,0.56,0.49,0.99C173.11,14.81,173.16,15.44,173.16,16.27z"
    />
    <path
        fill="#FFFFFF"
        d="M186.25,12.89c0,1.27-0.26,2.14-0.78,2.63c-0.52,0.48-1.48,0.73-2.88,0.73c-1.42,0-2.37-0.23-2.87-0.7
	c-0.49-0.47-0.74-1.31-0.74-2.53c0-1.27,0.25-2.15,0.76-2.64c0.51-0.49,1.47-0.74,2.89-0.74c1.4,0,2.35,0.24,2.85,0.71
	C186,10.83,186.25,11.67,186.25,12.89z M185.78,42.77c0,0.17-0.05,0.31-0.15,0.44c-0.1,0.12-0.27,0.23-0.51,0.31
	c-0.24,0.08-0.56,0.15-0.96,0.19c-0.4,0.04-0.91,0.06-1.53,0.06s-1.13-0.02-1.53-0.06c-0.4-0.04-0.72-0.1-0.96-0.19
	c-0.24-0.08-0.41-0.19-0.51-0.31c-0.1-0.12-0.15-0.27-0.15-0.44V20.5c0-0.17,0.05-0.31,0.15-0.44c0.1-0.12,0.27-0.23,0.51-0.33
	s0.56-0.16,0.96-0.21s0.91-0.08,1.53-0.08s1.13,0.02,1.53,0.08c0.4,0.05,0.72,0.12,0.96,0.21s0.41,0.2,0.51,0.33
	c0.1,0.12,0.15,0.27,0.15,0.44V42.77z"
    />
    <path
        fill="#FFFFFF"
        d="M213.23,42.77c0,0.18-0.04,0.34-0.12,0.46c-0.08,0.12-0.23,0.23-0.43,0.31s-0.47,0.14-0.81,0.18
	c-0.34,0.03-0.76,0.05-1.26,0.05c-0.53,0-0.97-0.02-1.3-0.05c-0.33-0.03-0.61-0.09-0.81-0.18c-0.21-0.08-0.36-0.19-0.45-0.31
	s-0.14-0.28-0.14-0.46V40.3c-1.15,1.23-2.36,2.19-3.62,2.88c-1.26,0.68-2.66,1.03-4.19,1.03c-1.7,0-3.14-0.33-4.32-0.99
	c-1.18-0.66-2.14-1.55-2.88-2.67c-0.74-1.12-1.28-2.42-1.61-3.92c-0.33-1.49-0.5-3.07-0.5-4.72c0-1.99,0.21-3.77,0.64-5.36
	c0.42-1.58,1.05-2.94,1.86-4.05c0.82-1.12,1.83-1.98,3.05-2.58s2.62-0.9,4.21-0.9c1.25,0,2.39,0.25,3.4,0.76
	c1.02,0.51,2.03,1.26,3.03,2.24V9.94c0-0.17,0.05-0.32,0.14-0.45c0.09-0.13,0.26-0.25,0.5-0.34c0.24-0.09,0.56-0.16,0.96-0.21
	c0.4-0.05,0.91-0.08,1.53-0.08c0.62,0,1.13,0.02,1.53,0.08c0.4,0.05,0.72,0.12,0.95,0.21c0.23,0.09,0.4,0.2,0.5,0.34
	c0.1,0.13,0.15,0.28,0.15,0.45V42.77z M206.97,27.86c-0.9-1.13-1.76-2-2.59-2.6c-0.83-0.6-1.69-0.9-2.59-0.9
	c-0.82,0-1.52,0.2-2.11,0.61c-0.59,0.41-1.07,0.96-1.43,1.64c-0.36,0.68-0.63,1.45-0.8,2.29c-0.18,0.84-0.26,1.71-0.26,2.59
	c0,0.94,0.08,1.84,0.22,2.73c0.15,0.88,0.4,1.67,0.74,2.37s0.8,1.25,1.36,1.66s1.29,0.63,2.15,0.63c0.43,0,0.85-0.06,1.26-0.19
	c0.41-0.13,0.83-0.33,1.25-0.61c0.42-0.28,0.86-0.66,1.31-1.11c0.45-0.46,0.94-1.02,1.48-1.69V27.86z"
    />
</svg>
